HIERARCHY
ROOT Hips
{
	OFFSET 0.00000 0.00000 0.00000
	CHANNELS 6 Xposition Yposition Zposition Zrotation Yrotation Xrotation 
	JOINT LHipJoint
	{
		OFFSET 0 0 0
		CHANNELS 3 Zrotation Yrotation Xrotation
		JOINT LeftHip
		{
			OFFSET 1.37590 -1.78394 0.89329
			CHANNELS 3 Zrotation Yrotation Xrotation
			JOINT LeftKnee
			{
				OFFSET 2.47928 -6.81178 0.00000
				CHANNELS 3 Zrotation Yrotation Xrotation
				JOINT LeftAnkle
				{
					OFFSET 2.63345 -7.23535 0.00000
					CHANNELS 3 Zrotation Yrotation Xrotation
					JOINT LeftToe
					{
						OFFSET 0.23938 -0.65768 2.27012
						CHANNELS 3 Zrotation Yrotation Xrotation
						End Site
						{
							OFFSET 0.00000 -0.00000 1.18363
						}
					}
				}
			}
		}
	}
	JOINT RHipJoint
	{
		OFFSET 0 0 0
		CHANNELS 3 Zrotation Yrotation Xrotation
		JOINT RightHip
		{
			OFFSET -1.33617 -1.78394 0.89329
			CHANNELS 3 Zrotation Yrotation Xrotation
			JOINT RightKnee
			{
				OFFSET -2.56922 -7.05888 0.00000
				CHANNELS 3 Zrotation Yrotation Xrotation
				JOINT RightAnkle
				{
					OFFSET -2.56568 -7.04915 0.00000
					CHANNELS 3 Zrotation Yrotation Xrotation
					JOINT RightToe
					{
						OFFSET -0.27533 -0.75646 2.18105
						CHANNELS 3 Zrotation Yrotation Xrotation
						End Site
						{
							OFFSET -0.00000 -0.00000 1.15233
						}
					}
				}
			}
		}
	}
	JOINT lowerback
	{
		OFFSET 0 0 0
		CHANNELS 3 Zrotation Yrotation Xrotation
		JOINT Chest
		{
			OFFSET 0.06190 2.15152 -0.00935
			CHANNELS 3 Zrotation Yrotation Xrotation
			JOINT Chest2
			{
				OFFSET 0.06334 2.15332 0.00872
				CHANNELS 3 Zrotation Yrotation Xrotation
				JOINT lowerneck
				{
					OFFSET 0 0 0
					CHANNELS 3 Zrotation Yrotation Xrotation
					JOINT Neck
					{
						OFFSET -0.04202 1.66908 0.23524
						CHANNELS 3 Zrotation Yrotation Xrotation
						JOINT Head
						{
							OFFSET 0.07510 1.69357 -0.24440
							CHANNELS 3 Zrotation Yrotation Xrotation
							End Site
							{
								OFFSET 0.02556 1.71719 -0.11000
							}
						}
					}
				}
				JOINT LeftCollar
				{
					OFFSET 0 0 0
					CHANNELS 3 Zrotation Yrotation Xrotation
					JOINT LeftShoulder
					{
						OFFSET 3.67168 1.26306 -0.41342
CHANNELS 3 Zrotation Xrotation Yrotation
						JOINT LeftElbow
						{
OFFSET 0 -4.685100 -0.000000
CHANNELS 3 Zrotation Xrotation Yrotation
							JOINT LeftWrist
							{
OFFSET 0 -3.396260 -0.000000
CHANNELS 3 Zrotation Xrotation Yrotation
								JOINT lhand
								{
									OFFSET 0 0 0
CHANNELS 3 Zrotation Xrotation Yrotation
									JOINT LFingers
									{
OFFSET 0 -0.486080 -0.000000
CHANNELS 3 Zrotation Xrotation Yrotation
										End Site
										{
OFFSET 0 -0.391890 -0.000000
										}
									}
								}
								JOINT LThumb
								{
OFFSET 0 0.000000 0.000000
CHANNELS 3 Zrotation Xrotation Yrotation
									End Site
									{
OFFSET 0 -0.397870 0.397870
									}
								}
							}
						}
					}
				}
				JOINT RightCollar
				{
					OFFSET 0 0 0
					CHANNELS 3 Zrotation Yrotation Xrotation
					JOINT RightShoulder
					{
						OFFSET -3.04136 1.42992 -0.76390
CHANNELS 3 Zrotation Xrotation Yrotation
						JOINT RightElbow
						{
OFFSET 0 -5.555760 -0.000000
CHANNELS 3 Zrotation Xrotation Yrotation
							JOINT RightWrist
							{
OFFSET 0 -3.327740 -0.000000
CHANNELS 3 Zrotation Xrotation Yrotation
								JOINT rhand
								{
									OFFSET 0 0 0
CHANNELS 3 Zrotation Xrotation Yrotation
									JOINT RFingers
									{
OFFSET 0 -0.507630 -0.000000
CHANNELS 3 Zrotation Xrotation Yrotation
										End Site
										{
OFFSET 0 -0.409260 -0.000000
										}
									}
								}
								JOINT RThumb
								{
OFFSET 0 0.000000 0.000000
CHANNELS 3 Zrotation Xrotation Yrotation
									End Site
									{
OFFSET 0 -0.415510 0.415510
									}
								}
							}
						}
					}
				}
			}
		}
	}
}
MOTION
Frames: 12
Frame Time: .0083333
42.6063 17.5062 5.1947 -80.4131 -81.2096 90.4149 0.0000 0.0000 0.0000 -1.9094 -7.6866 -40.7719 8.1194 16.2064 52.9916 0.1027 2.0492 -7.1721 2.9521 -10.6170 -30.9990 0.0000 0.0000 0.0000 33.4645 4.6205 -5.2579 -0.8353 -5.8303 16.2927 -0.8639 -5.5570 -20.4241 -0.7826 -5.6478 15.7659 6.2209 0.7241 -0.2700 3.7245 0.8757 -0.4195 0.3469 0.3862 -0.2421 -6.9925 -1.3185 -20.6110 6.2998 -0.9654 14.6655 3.1358 -0.2132 7.9790 -0.0000 -0.0000 0.0000 -2.4066 -1.8668 -12.8059 18.9578 -29.3662 5.0101 9.5524 23.5831 -20.0818 0.0 0.0 0.0 -7.1250 0.0 0.0 -18.4992 49.4002 2.0709 -0.0000 -0.0000 0.0000 -5.4537 -7.75 33.2051 -20.4088 -31.1317 -5.7412 -22.24 19.7167 26.6213 0.0 0.0 0.0 7.1250 0.0 -0.0 8.8110 58.1988 -2.8596
42.5401 17.5057 5.1907 -79.5255 -81.3101 89.7037 0.0000 0.0000 0.0000 -1.9248 -7.8771 -41.1336 7.7313 15.9180 51.5888 0.0865 2.6519 -7.1878 3.0302 -10.7439 -31.4208 0.0000 0.0000 0.0000 33.3450 4.4698 -5.1162 -0.8110 -5.7471 16.0523 -0.8843 -5.5298 -20.6002 -0.7729 -5.6133 15.6665 6.2328 0.7020 -0.2832 3.6082 0.8531 -0.4857 0.2202 0.3741 -0.3020 -6.9674 -1.3199 -20.7096 6.3173 -0.9707 14.6450 3.1373 -0.2108 7.9893 0.0000 0.0000 0.0000 -2.3571 -1.4894 -12.6576 19.2964 -29.7853 5.1773 9.409 22.952 -20.3567 0.0 0.0 0.0 -7.1250 0.0 0.0 -18.7529 49.6402 2.215 0.0000 0.0000 0.0000 -5.3707 -7.76 33.6453 -20.7863 -31.5781 -5.9376 -20.0656 18.6399 26.8845 0.0 0.0 0.0 7.1250 0.0 -0.0 11.2944 57.98 -3.6179
42.4716 17.4996 5.1875 -80.6305 -81.1901 91.0083 0.0000 0.0000 0.0000 -1.5943 -7.8054 -41.5115 7.3113 15.5886 50.0423 0.0693 3.1127 -7.0995 3.0960 -10.8488 -31.7718 0.0000 0.0000 0.0000 33.5084 4.5485 -4.9779 -0.7981 -5.7020 15.9223 -0.9133 -5.3866 -20.7777 -0.7613 -5.5720 15.5476 6.4630 0.7788 -0.2951 3.5669 0.9595 -0.5836 0.0500 0.4223 -0.3876 -6.9028 -1.2926 -20.6920 6.2413 -0.9366 14.5892 3.1041 -0.1985 7.9644 0.0000 0.0000 0.0000 -2.345 -1.0605 -12.5081 19.6310 -30.1952 5.3445 9.4266 22.2774 -20.6516 0.0 0.0 0.0 -7.1250 0.0 0.0 -18.8675 49.9231 2.3643 0.0000 0.0000 0.0000 -5.324 -7.6037 34.2447 -21.1593 -32.0138 -6.1342 -18.5972 18.4919 27.1 0.0 0.0 0.0 7.1250 0.0 -0.0 12.9783 57.8716 -4.1346
42.3992 17.4980 5.1837 -79.4217 -81.3642 89.9564 0.0000 0.0000 0.0000 -1.6917 -8.1303 -41.7079 6.8819 15.2316 48.4262 0.0539 3.5769 -7.0993 3.0141 -10.7178 -31.3341 0.0000 0.0000 0.0000 33.3199 4.4172 -4.7511 -0.7691 -5.6001 15.6283 -0.9303 -5.4447 -20.9729 -0.7626 -5.5767 15.5609 6.3520 0.7638 -0.3989 3.4450 0.9345 -0.5828 -0.0127 0.4136 -0.3295 -6.9523 -1.3251 -20.8660 6.3668 -0.9794 14.5942 3.1509 -0.2063 7.9997 -0.0000 -0.0000 0.0000 -2.3164 -0.7695 -12.4448 19.9746 -30.6117 5.5184 9.4821 21.5595 -20.6361 0.0 0.0 0.0 -7.1250 0.0 0.0 -18.8086 49.9168 2.3535 -0.0000 -0.0000 0.0000 -5.2588 -7.7042 34.6698 -21.6700 -32.6021 -6.4071 -17.2069 17.3975 27.5207 0.0 0.0 0.0 7.1250 0.0 -0.0 14.6921 57.9813 -4.7343
42.3248 17.4936 5.1853 -80.7951 -81.4165 91.4427 0.0000 0.0000 0.0000 -1.6143 -8.1197 -41.7808 6.4199 14.8232 46.6444 0.0274 4.1940 -6.9664 2.9687 -10.6442 -31.0889 0.0000 0.0000 0.0000 33.2794 4.4459 -4.4908 -0.7548 -5.5488 15.4806 -0.9449 -5.3761 -21.0635 -0.7345 -5.4755 15.2699 6.7682 0.8656 -0.2161 3.1144 1.1027 -0.7294 -0.5866 0.4894 -0.5619 -6.8067 -1.3273 -20.8340 6.4922 -1.0534 14.5853 3.1599 -0.2210 7.9968 0.0000 -0.0000 0.0000 -1.9088 -0.2338 -12.4588 20.3204 -31.0265 5.6956 9.3822 20.8058 -20.7119 0.0 0.0 0.0 -7.1250 0.0 0.0 -18.9361 49.9736 2.3976 0.0000 -0.0000 0.0000 -4.8917 -7.3763 35.1828 -22.2689 -33.2796 -6.7328 -15.8026 16.707 27.7687 0.0 0.0 0.0 7.1250 0.0 -0.0 16.3171 57.9159 -5.2498
42.2466 17.4876 5.1819 -79.4302 -81.4530 90.1447 0.0000 0.0000 0.0000 -1.5555 -8.4338 -41.7736 5.9546 14.3842 44.7994 0.0081 4.5311 -6.7563 2.9429 -10.6021 -30.9494 0.0000 0.0000 0.0000 33.2561 4.3281 -4.0609 -0.7134 -5.3978 15.0467 -0.9573 -5.4805 -21.2447 -0.7672 -5.5934 15.6090 6.7705 0.7660 -0.2320 3.0623 0.9685 -0.7024 -0.6412 0.4245 -0.5323 -6.4054 -1.3235 -20.6529 5.8351 -1.0316 14.1076 2.8654 -0.2545 7.7990 -0.0000 -0.0000 0.0000 -1.8927 0.0195 -12.2284 20.6429 -31.4091 5.8627 9.3294 20.1383 -20.9257 0.0 0.0 0.0 -7.1250 0.0 0.0 -19.0824 50.1683 2.5112 -0.0000 -0.0000 0.0000 -4.8135 -7.5898 35.7427 -22.5381 -33.5798 -6.8811 -12.7683 15.5354 28.3771 0.0 0.0 0.0 7.1250 0.0 -0.0 19.8575 57.8388 -6.4067
42.1708 17.4789 5.1802 -78.6787 -81.4649 89.5732 0.0000 0.0000 0.0000 -1.3551 -8.7854 -41.8476 5.4937 13.9191 42.9143 0.0008 4.7456 -6.8010 2.8177 -10.3939 -30.2618 0.0000 0.0000 0.0000 33.2684 4.2972 -3.8727 -0.6963 -5.3339 14.8635 -0.9695 -5.6089 -21.4388 -0.7510 -5.5354 15.4420 6.8499 0.7731 -0.3005 2.9717 0.9741 -0.7177 -0.7776 0.4279 -0.5065 -6.1626 -1.3680 -20.6111 5.4537 -1.0827 13.8084 2.6863 -0.3027 7.6920 0.0000 0.0000 0.0000 -1.8288 0.2582 -12.173 20.9637 -31.786 6.0308 9.3868 19.7024 -21.2843 0.0 0.0 0.0 -7.1250 0.0 0.0 -19.1936 50.5169 2.6958 0.0000 0.0000 0.0000 -4.6871 -8.0058 36.0944 -22.5583 -33.6022 -6.8923 -15.2998 16.1875 25.4292 0.0 0.0 0.0 7.1250 0.0 -0.0 15.4851 55.5436 -4.078
42.0887 17.4670 5.1811 -80.4562 -81.5128 91.5138 0.0000 0.0000 0.0000 -1.2361 -8.7117 -41.8483 5.0063 13.3908 40.8497 -0.0407 5.3076 -6.1087 2.7047 -10.2010 -29.6300 0.0000 0.0000 0.0000 33.2621 4.4593 -3.6120 -0.6864 -5.2968 14.7571 -0.9925 -5.5621 -21.6155 -0.7343 -5.4745 15.2669 6.9243 0.9232 -0.4169 2.8676 1.1635 -0.7041 -0.9235 0.5255 -0.4115 -6.6400 -1.3061 -21.1545 6.3005 -1.0014 14.2250 3.0703 -0.1996 7.9248 -0.0000 0.0000 0.0000 -1.7464 0.487 -12.2394 21.2857 -32.1604 6.2013 9.4481 19.1629 -21.4954 0.0 0.0 0.0 -7.1250 0.0 0.0 -19.2346 50.7266 2.8036 -0.0000 0.0000 0.0000 -4.6436 -8.0825 36.5205 -23.0208 -34.1115 -7.15 -15.1218 16.1538 25.384 0.0 0.0 0.0 7.1250 0.0 -0.0 15.6415 55.4644 -4.0903
42.0080 17.4575 5.1816 -79.7605 -81.5402 90.9105 0.0000 0.0000 0.0000 -1.1159 -9.0106 -41.7114 4.5079 12.8072 38.6512 -0.0712 5.5701 -5.1698 2.5269 -9.8867 -28.6107 0.0000 0.0000 0.0000 33.2372 4.2668 -3.3157 -0.6617 -5.2025 14.4870 -1.0141 -5.5571 -21.8039 -0.7464 -5.5185 15.3936 6.9704 0.9439 -0.4052 2.7929 1.1935 -0.6979 -1.0258 0.5412 -0.4072 -6.6161 -1.3548 -21.2750 6.2665 -1.0576 14.1487 3.0473 -0.2263 7.9232 -0.0000 0.0000 0.0000 -1.6844 0.6995 -12.2762 21.5858 -32.5058 6.3618 9.4087 18.7519 -21.6686 0.0 0.0 0.0 -7.1250 0.0 0.0 -19.3537 50.8842 2.899 -0.0000 0.0000 0.0000 -4.6624 -8.1223 37.001 -23.5410 -34.6751 -7.4438 -13.7944 15.8796 27.0701 0.0 0.0 0.0 7.1250 0.0 -0.0 17.9613 56.8195 -5.3209
41.9273 17.4432 5.1802 -78.9915 -81.5772 90.3473 0.0000 0.0000 0.0000 -0.9152 -9.3550 -41.6850 4.0779 12.2634 36.6702 -0.0817 5.6460 -4.7208 2.2720 -9.4110 -27.0896 0.0000 0.0000 0.0000 33.2249 4.1907 -3.1263 -0.6425 -5.1278 14.2734 -1.0421 -5.6055 -22.0817 -0.7706 -5.6053 15.6434 6.9932 0.9634 -0.4830 2.7108 1.2157 -0.7298 -1.1218 0.5526 -0.3928 -6.4790 -1.3861 -21.2962 6.1222 -1.1049 13.9476 2.9669 -0.2547 7.8612 0.0000 0.0000 0.0000 -1.6159 0.8859 -12.3096 21.8705 -32.8303 6.5155 9.9849 18.6329 -22.5371 0.0 0.0 0.0 -7.1250 0.0 0.0 -19.2276 51.8 3.3217 0.0000 0.0000 0.0000 -4.6779 -8.19 37.4792 -24.0418 -35.2084 -7.7306 -15.4128 16.268 25.3332 0.0 0.0 0.0 7.1250 0.0 -0.0 15.3193 55.4726 -4.0062
41.8353 17.4313 5.1841 -80.0809 -81.5762 91.4631 0.0000 0.0000 0.0000 -0.7480 -9.4014 -41.3194 3.6108 11.6237 34.4133 -0.1077 6.0492 -4.0061 2.1105 -9.0926 -26.0855 0.0000 0.0000 0.0000 33.2658 4.2551 -2.7041 -0.6342 -5.0953 14.1805 -1.0850 -5.5418 -22.4133 -0.7981 -5.7021 15.9226 7.1174 1.0620 -0.5045 2.6262 1.3416 -0.6603 -1.2757 0.6195 -0.2954 -6.5160 -1.3843 -21.4859 6.1971 -1.0919 13.8915 3.0004 -0.2400 7.8740 -0.0000 -0.0000 0.0000 -1.5294 1.023 -12.2734 22.1720 -33.1709 6.6797 9.5844 18.3995 -22.5296 0.0 0.0 0.0 -7.1250 0.0 0.0 -19.6060 51.7263 3.355 -0.0000 -0.0000 0.0000 -4.6881 -8.319 37.9771 -24.5292 -35.7189 -8.0134 -14.8309 16.0175 25.2305 0.0 0.0 0.0 7.1250 0.0 -0.0 15.8539 55.2581 -4.0676
41.7494 17.4151 5.1863 -80.9036 -81.5504 92.4781 0.0000 0.0000 0.0000 -0.3981 -9.6045 -41.1401 3.1795 10.9801 32.2128 -0.1165 6.1219 -3.2951 1.7599 -8.3469 -23.7727 0.0000 0.0000 0.0000 33.3136 4.2539 -2.4746 -0.6164 -5.0246 13.9788 -1.0987 -5.5256 -22.5210 -0.7567 -5.5556 15.5002 7.2065 1.1730 -0.5802 2.5660 1.4835 -0.6803 -1.3846 0.6907 -0.2593 -6.6819 -1.4217 -21.6972 6.4134 -1.1227 13.9356 3.0992 -0.2388 7.9288 -0.0000 -0.0000 0.0000 -1.4656 1.1593 -12.3845 22.4219 -33.4506 6.817 9.6426 17.9866 -22.3756 0.0 0.0 0.0 -7.1250 0.0 0.0 -19.4742 51.5905 3.2645 -0.0000 -0.0000 0.0000 -4.7468 -8.3978 38.4701 -25.0276 -36.2322 -8.3062 -15.4157 16.4685 25.7822 0.0 0.0 0.0 7.1250 0.0 -0.0 15.5582 55.9101 -4.2376
